<?xml version="1.0" encoding="utf-8"?>
<!-- Generator: Adobe Illustrator 23.0.1, SVG Export Plug-In . SVG Version: 6.00 Build 0)  -->
<!-- Copyright © 2019 Bethan Tovey. All rights reserved. -->
<svg version="1.1" id="Layer_1" xmlns="http://www.w3.org/2000/svg" xmlns:xlink="http://www.w3.org/1999/xlink" x="0px" y="0px"
	 viewBox="0 30 141.7 80" style="enable-background:new 0 30 141.7 80;" xml:space="preserve">
<style type="text/css">
	.st0{fill:#7C96CD;}
	.st1{fill:#FFFFFF;}
	.st2{fill:#13110C;}
</style>
<g>
	<path class="st0" d="M116,74c0-15.9,23.1-39,21.7-38.9c-28.2,3-33.1,26.4-39.1,25c-4.1-0.9-24.2-5.6-26.5-12.1
		c-1.3-3.7,4.1-10.3,18.5-17.2C91,30.6,74.7,29.4,59,33c-19.6,4.5-33.4,12.3-42.7,21.3c6.6,2.7,15.6,11.4,15.4,22.3
		c-0.2,10.3-9.3,19.2-9.7,18.6c-0.2-0.3,8.4-8.3,8.1-18.7C29.7,66.4,19.4,60.1,13.7,57C8.9,62.2,5.5,67.8,3.4,73.4
		c-0.3,0.7-0.2,1.7,1.5,3c1.3,1,2.1,1.3,2.1,1.3c0,0.3-1.5,0-2.8-0.6c-1.2-0.6-1.7-0.4-1.7,0.3c-0.6,26.7,57.1,38.8,83.4,27.7
		c0.3-0.1-14.8-1.2-16.1-5.9c-2.1-7.8,22.8-13.7,28.8-12.7c10.1,1.6,16.9,24.6,40.7,22.8C140.9,109.2,116,89.6,116,74z"/>
	<g>
		<g>
			<path class="st1" d="M30.2,76.6c0.3,10.3-8.3,18.4-8.1,18.7c0.5,0.5,9.5-8.3,9.7-18.6C32.1,65.7,23,57,16.5,54.3
				c-0.9,0.9-1.8,1.8-2.6,2.7C19.6,60.1,29.9,66.5,30.2,76.6z"/>
		</g>
		<path class="st1" d="M16.4,80.7c3.6,0,6.4-3.2,6.4-7.1c0-3.9-2.9-7.1-6.4-7.1S10,69.7,10,73.6C10,77.5,12.9,80.7,16.4,80.7z"/>
		<path class="st2" d="M16.4,76.7c1.6,0,2.9-1.4,2.9-3.1s-1.3-3.1-2.9-3.1s-2.9,1.4-2.9,3.1S14.8,76.7,16.4,76.7z"/>
		<path class="st1" d="M15.5,72.9c0.3,0,0.6-0.3,0.6-0.6c0-0.3-0.2-0.6-0.6-0.6s-0.6,0.3-0.6,0.6C14.9,72.6,15.2,72.9,15.5,72.9z"/>
		<g>
			<path class="st1" d="M101.2,71.5c0-0.2-4-0.7-10.5-1.1c0.5-0.9,1-1.9,1.5-2.8c0.7-1.2,0.9-1.7,1.9-2.5c0.5-0.4,1.5-0.6,1.6-0.8
				c0-0.2-0.3-0.2-0.4-0.2c-0.6,0-1.3,0.2-1.8,0.5c-1.1,0.6-1.7,1.4-2.4,2.5c-0.7,1.1-1.4,2.1-1.9,3.2c-3.4-0.2-7.3-0.4-11.6-0.4
				c0.7-1.5,1.4-3,2.2-4.5c1-1.8,1.2-2.6,2.5-3.8c0.6-0.5,2-0.9,2.1-1.2c0-0.2-0.4-0.2-0.5-0.2c-0.8,0-1.7,0.2-2.4,0.7
				c-1.4,0.9-2.3,2-3.2,3.7c-0.9,1.6-1.9,3.1-2.6,4.9c0,0.1-0.1,0.2-0.1,0.3c-0.9,0-1.8,0-2.8,0c-3.2,0-6.1,0-8.6-0.1
				c1-2.2,1.9-4.4,3-6.6c1.2-2.4,1.5-3.4,3.2-5c0.8-0.7,2.5-1.2,2.6-1.6c0-0.3-0.5-0.3-0.7-0.3c-1.1,0-2.1,0.3-3,0.9
				c-1.8,1.3-2.8,2.7-4,5c-1.1,2.1-2.4,4.2-3.2,6.5c-0.1,0.3-0.2,0.7-0.3,1c-5.2-0.1-8.9-0.1-11.3,0.1c1.3-2.8,2.4-5.7,3.7-8.5
				c1.4-3,1.8-4.3,3.9-6.3c1-0.9,3.1-1.5,3.1-2c0-0.4-0.6-0.4-0.8-0.4c-1.3,0-2.6,0.4-3.7,1.1c-2.2,1.6-3.4,3.4-4.9,6.2
				c-1.2,2.5-2.6,4.8-3.7,7.4l-3.3-7.2c-0.8-1.7-1.2-2.8-1.2-3.1c0-0.5,0.3-0.7,0.8-0.7c0.2,0,0.1,0,0.4,0.1
				c0.3,0.1,0.5,0.1,0.8,0.1c0.4,0,0.7-0.2,1-0.7c0.3-0.4,0.4-0.9,0.4-1.5c0-0.6-0.2-1.1-0.5-1.5c-0.3-0.4-0.7-0.7-1.2-0.7
				c-0.4,0-1.1,0.1-1.9,0.3c-0.8,0.2-1.5,0.3-2,0.3c-0.5,0-1.2-0.1-2.1-0.3c-0.9-0.2-1.6-0.3-2.1-0.3c-1.1,0-1.6,0.7-1.6,2.2
				c0,1.4,0.5,2.1,1.5,2.1c0.2,0,0.1,0,0.4,0c0.3,0,0.5-0.1,0.8-0.1c0.5,0,1,0.3,1.4,1c0.5,0.7,1.3,2.3,2.5,4.9l4.3,9.1l-5.9,12.4
				l-1.2,2.3c-0.7,1.4-1.3,2.1-1.9,2.1c-0.3,0-0.1,0-0.5-0.1c-0.3-0.1-0.6-0.2-1-0.2c-0.9,0-1.4,0.7-1.4,2c0,1.6,0.6,2.4,1.7,2.4
				c0.3,0,0.8-0.1,1.5-0.2c1.4-0.3,2.4-0.5,3.2-0.5c0.5,0,1.1,0.1,2,0.4c0.8,0.2,1.5,0.4,1.9,0.4c0.5,0,0.8-0.2,1.2-0.7
				c0.3-0.5,0.5-1,0.5-1.6c0-1.4-0.5-2.1-1.6-2.1c-0.2,0-0.1,0-0.5,0.1c-0.3,0.1-0.6,0.2-0.9,0.2c-0.4,0-0.6-0.3-0.6-0.9
				c0-0.2,0.2-0.8,0.5-1.7l0.6-1.5L48,75c0.4,1.2,1,2.3,1.5,3.4c0.9,2.1,2,4.1,3,6.1c1.5,2.9,2.3,4.6,4.4,6.2
				c1.6,1.2,5.4,1.4,5.3,0.7c0-0.5-2.7-0.9-3.7-1.8c-2.1-2.1-2.2-3.3-3.6-6.4c-1.5-3-2.6-6.5-4.1-9.6c2.5,0.1,6.1,0,11.1-0.1
				c0.4,1.2,0.9,2.3,1.4,3.4c0.8,1.6,1.6,3.3,2.4,4.9c1.2,2.4,1.9,3.7,3.7,5c1.3,1,4.4,1.1,4.4,0.5c0-0.4-2.2-0.7-3-1.5
				c-1.7-1.6-1.8-2.6-3-5.1c-1.2-2.3-2.1-4.9-3.1-7.3c2.4-0.1,5-0.1,7.9-0.1c1.1,0,2.1,0,3.1,0c0.3,0.8,0.7,1.7,1.1,2.4
				c0.6,1.2,1.3,2.4,2,3.7c1,1.8,1.5,2.8,2.9,3.7c1.1,0.7,3.5,0.9,3.5,0.4c0-0.3-1.8-0.5-2.4-1.1c-1.4-1.2-1.5-2-2.4-3.8
				c-0.9-1.7-1.6-3.6-2.5-5.3c4.1-0.1,8-0.3,11.3-0.5c0.2,0.6,0.6,1.2,0.9,1.7c0.5,0.8,1,1.6,1.5,2.4c0.7,1.2,1.1,1.8,2.2,2.5
				c0.8,0.5,2.7,0.6,2.6,0.3c0-0.2-1.3-0.4-1.8-0.7c-1-0.8-1.1-1.3-1.8-2.6c-0.7-1.2-1.3-2.5-1.9-3.7
				C97.2,72.1,101.2,71.7,101.2,71.5z"/>
		</g>
	</g>
</g>
</svg>
